<?xml version="1.0" encoding="UTF-8" standalone="no"?>
<!-- Created with Inkscape (http://www.inkscape.org/) -->

<svg
   xmlns:dc="http://purl.org/dc/elements/1.1/"
   xmlns:cc="http://creativecommons.org/ns#"
   xmlns:rdf="http://www.w3.org/1999/02/22-rdf-syntax-ns#"
   xmlns:svg="http://www.w3.org/2000/svg"
   xmlns="http://www.w3.org/2000/svg"
   xmlns:sodipodi="http://sodipodi.sourceforge.net/DTD/sodipodi-0.dtd"
   xmlns:inkscape="http://www.inkscape.org/namespaces/inkscape"
   width="256"
   height="256"
   id="svg2"
   version="1.1"
   inkscape:version="0.48.2 r9819"
   sodipodi:docname="server-icons.svg"
   inkscape:export-filename="/Users/sam/Documents/workspace/leafchat/design/server.png"
   inkscape:export-xdpi="5.6199999"
   inkscape:export-ydpi="5.6199999">
  <defs
     id="defs4" />
  <sodipodi:namedview
     id="base"
     pagecolor="#ffffff"
     bordercolor="#666666"
     borderopacity="1.0"
     inkscape:pageopacity="0.0"
     inkscape:pageshadow="2"
     inkscape:zoom="3.1445312"
     inkscape:cx="128"
     inkscape:cy="128"
     inkscape:document-units="px"
     inkscape:current-layer="layer1"
     showgrid="true"
     inkscape:snap-global="true"
     inkscape:window-width="1389"
     inkscape:window-height="1023"
     inkscape:window-x="358"
     inkscape:window-y="8"
     inkscape:window-maximized="0">
    <inkscape:grid
       type="xygrid"
       id="grid2985"
       empspacing="4"
       visible="true"
       enabled="true"
       snapvisiblegridlinesonly="true"
       dotted="false"
       empcolor="#1c1fff"
       empopacity="0.25098039"
       color="#9b09ff"
       opacity="0.12156863"
       spacingx="4px"
       spacingy="4px" />
  </sodipodi:namedview>
  <metadata
     id="metadata7">
    <rdf:RDF>
      <cc:Work
         rdf:about="">
        <dc:format>image/svg+xml</dc:format>
        <dc:type
           rdf:resource="http://purl.org/dc/dcmitype/StillImage" />
        <dc:title></dc:title>
      </cc:Work>
    </rdf:RDF>
  </metadata>
  <g
     inkscape:label="Server"
     inkscape:groupmode="layer"
     id="layer1"
     transform="translate(0,-796.36215)"
     style="display:inline">
    <path
       style="fill:#000000;stroke:#000000;stroke-width:0.5;stroke-linejoin:round;stroke-miterlimit:4;stroke-opacity:1;stroke-dasharray:0.5, 1;stroke-dashoffset:0"
       d="m 47.03125,16.46875 c -17.145901,0 -30.96875,14.117614 -30.96875,31.6875 l 0,159.6875 c 0,17.56989 13.822849,31.6875 30.96875,31.6875 l 161.1875,0 c 17.1459,0 30.9375,-14.11761 30.9375,-31.6875 l 0,-159.6875 c 0,-17.569886 -13.7916,-31.6875 -30.9375,-31.6875 l -161.1875,0 z m 17.21875,16.4375 129.8125,0 C 211.2084,32.90625 225,47.055114 225,64.625 l 0,128.28125 c 0,17.56989 -13.7916,31.71875 -30.9375,31.71875 l -129.8125,0 c -17.145901,0 -30.96875,-14.14886 -30.96875,-31.71875 l 0,-128.28125 c 0,-17.569886 13.822849,-31.71875 30.96875,-31.71875 z"
       transform="translate(0,796.36215)"
       id="rect2987"
       inkscape:connector-curvature="0" />
    <path
       sodipodi:type="arc"
       style="fill:#008000;fill-opacity:1;stroke:#000000;stroke-width:0.50000000000000000;stroke-linejoin:round;stroke-miterlimit:4;stroke-opacity:1;stroke-dasharray:0.50000000000000000, 1;stroke-dashoffset:0"
       id="path3023"
       sodipodi:cx="117.85949"
       sodipodi:cy="118.43348"
       sodipodi:rx="36.352764"
       sodipodi:ry="33.865471"
       d="m 154.21225,118.43348 a 36.352764,33.865471 0 1 1 -72.705525,0 36.352764,33.865471 0 1 1 72.705525,0 z"
       transform="matrix(0.44013164,0,0,0.4724577,28.126311,820.40734)" />
    <path
       transform="matrix(0.44013164,0,0,0.4724577,76.126311,820.40734)"
       d="m 154.21225,118.43348 a 36.352764,33.865471 0 1 1 -72.705525,0 36.352764,33.865471 0 1 1 72.705525,0 z"
       sodipodi:ry="33.865471"
       sodipodi:rx="36.352764"
       sodipodi:cy="118.43348"
       sodipodi:cx="117.85949"
       id="path3038"
       style="fill:#008000;fill-opacity:1;stroke:#000000;stroke-width:0.50000000000000000;stroke-linejoin:round;stroke-miterlimit:4;stroke-opacity:1;stroke-dasharray:0.50000000000000000, 1;stroke-dashoffset:0"
       sodipodi:type="arc" />
  </g>
  <g
     inkscape:groupmode="layer"
     id="layer2"
     inkscape:label="Redirect"
     sodipodi:insensitive="true"
     style="display:none">
    <path
       style="fill:#000000;fill-opacity:1;stroke:none"
       d="m 63.4375,111.71875 c -17.569886,0 -31.71875,14.14886 -31.71875,31.71875 l 0,64.5625 c 0,17.56989 14.148864,31.71875 31.71875,31.71875 l 64.5625,0 c 17.56989,0 31.71875,-14.14886 31.71875,-31.71875 l 0,-64.5625 c 0,-17.56989 -14.14886,-31.71875 -31.71875,-31.71875 l -64.5625,0 z m 16,16 32.5625,0 c 17.56989,0 31.71875,14.14886 31.71875,31.71875 l 0,32.5625 c 0,17.56989 -14.14886,31.71875 -31.71875,31.71875 l -32.5625,0 C 61.867614,223.71875 47.71875,209.56989 47.71875,192 l 0,-32.5625 c 0,-17.56989 14.148864,-31.71875 31.71875,-31.71875 z"
       id="rect3831"
       inkscape:connector-curvature="0" />
    <path
       style="fill:#000000;fill-opacity:0.50196078;stroke:none"
       d="M 95.71875,79.71875 C 78.148864,79.71875 64,93.86761 64,111.4375 l 0,0.28125 20.15625,0 c 5.44917,-9.57063 15.72015,-16 27.5625,-16 l 32.5625,0 C 161.85114,95.71875 176,109.86761 176,127.4375 L 176,160 c 0,11.9637 -6.54783,22.34553 -16.28125,27.75 l 0,19.96875 0.5625,0 C 177.85114,207.71875 192,193.56989 192,176 l 0,-64.5625 C 192,93.86761 177.85114,79.71875 160.28125,79.71875 l -64.5625,0 z"
       id="path3836"
       inkscape:connector-curvature="0" />
    <path
       id="path3841"
       d="M 127.71875,47.71875 C 110.14886,47.71875 96,61.86761 96,79.4375 l 0,0.28125 20.15625,0 c 5.44917,-9.57063 15.72015,-16 27.5625,-16 l 32.5625,0 C 193.85114,63.71875 208,77.86761 208,95.4375 L 208,128 c 0,11.9637 -6.54783,22.34553 -16.28125,27.75 l 0,19.96875 0.5625,0 C 209.85114,175.71875 224,161.56989 224,144 l 0,-64.5625 C 224,61.86761 209.85114,47.71875 192.28125,47.71875 l -64.5625,0 z"
       style="fill:#000000;fill-opacity:0.25098039;stroke:none"
       inkscape:connector-curvature="0" />
    <g
       transform="matrix(1.1530335,0,0,0.87795827,23.579476,-0.20230847)"
       style="font-size:296.30102539px;font-style:normal;font-variant:normal;font-weight:normal;font-stretch:normal;text-align:start;line-height:100%;letter-spacing:0px;word-spacing:0px;writing-mode:lr-tb;text-anchor:start;fill:#008000;fill-opacity:1;stroke:none;font-family:Droid Sans;-inkscape-font-specification:Droid Sans"
       id="text3843">
      <path
         d="m 51.190084,172.4605 0,-5.3531 c -4.1e-5,-5.4977 0.337541,-10.46498 1.012747,-14.90186 0.771575,-4.43671 2.073678,-8.58415 3.906313,-12.44233 1.928995,-3.85799 4.484975,-7.61962 7.667946,-11.2849 3.182865,-3.76152 7.185625,-7.66783 12.008294,-11.71894 4.629633,-3.95441 8.584168,-7.52314 11.863615,-10.70618 3.279293,-3.27925 5.931724,-6.558618 7.957303,-9.838125 2.12186,-3.375686 3.665093,-6.944412 4.629708,-10.706189 1.06088,-3.857936 1.59136,-8.342956 1.59146,-13.455076 -1e-4,-4.629538 -0.72349,-8.825203 -2.170178,-12.587006 -1.44687,-3.85791 -3.568815,-7.13728 -6.365842,-9.83812 -2.70074,-2.796927 -6.124789,-4.918873 -10.272155,-6.365843 -4.051059,-1.543044 -8.77721,-2.31466 -14.178467,-2.314851 -8.005579,1.91e-4 -15.625292,1.254068 -22.859161,3.761634 -7.23394,2.507941 -14.226714,5.401503 -20.978344,8.680694 L 15.888594,32.411964 c 7.812612,-4.050787 16.252167,-7.474835 25.318691,-10.272155 9.066463,-2.893352 18.277635,-4.340132 27.633543,-4.340347 8.969984,2.15e-4 17.023731,1.254091 24.161266,3.761634 7.233826,2.411512 13.358526,5.932013 18.374136,10.561511 5.01541,4.629899 8.87349,10.320571 11.57426,17.072032 2.70054,6.655375 4.05087,14.178636 4.05099,22.569805 -1.2e-4,6.462448 -0.67528,12.249572 -2.0255,17.361388 -1.25399,5.01565 -3.18303,9.693575 -5.78713,14.033788 -2.60431,4.34047 -5.83545,8.53614 -9.69344,12.58701 -3.85818,4.0511 -8.39143,8.34322 -13.599752,12.87636 -5.015592,4.34045 -9.114805,8.1503 -12.29765,11.42958 -3.182991,3.18301 -5.690744,6.3177 -7.523268,9.40409 -1.832655,2.99009 -3.086531,6.07656 -3.761634,9.2594 -0.675226,3.18299 -1.012808,6.8964 -1.012748,11.14023 l 0,2.60421 -20.110274,0 m -6.944556,43.8375 c -3.3e-5,-3.66516 0.482227,-6.75163 1.446783,-9.25941 0.964485,-2.60418 2.266588,-4.6779 3.906312,-6.22116 1.639646,-1.63965 3.568687,-2.79708 5.787129,-3.47228 2.218353,-0.77158 4.629654,-1.15739 7.233912,-1.15742 2.507702,3e-5 4.870777,0.38584 7.089234,1.15742 2.31479,0.6752 4.292057,1.83263 5.931807,3.47228 1.63962,1.54326 2.941723,3.61698 3.906313,6.22116 0.964451,2.50778 1.446712,5.59425 1.446782,9.25941 -7e-5,3.56874 -0.482331,6.65521 -1.446782,9.25941 -0.96459,2.50776 -2.266693,4.58148 -3.906313,6.22116 -1.63975,1.63969 -3.617017,2.84534 -5.931807,3.61696 -2.218457,0.77161 -4.581532,1.15742 -7.089234,1.15742 -2.604258,0 -5.015559,-0.38581 -7.233912,-1.15742 -2.218442,-0.77162 -4.147483,-1.97727 -5.787129,-3.61696 -1.639724,-1.63968 -2.941827,-3.7134 -3.906312,-6.22116 -0.964556,-2.6042 -1.446816,-5.69067 -1.446783,-9.25941"
         id="path3848"
         inkscape:connector-curvature="0" />
    </g>
  </g>
  <g
     inkscape:groupmode="layer"
     id="layer3"
     inkscape:label="Network"
     style="display:none"
     sodipodi:insensitive="true">
    <path
       sodipodi:nodetypes="cc"
       style="fill:#008000;stroke:#008000;stroke-width:16;stroke-linecap:butt;stroke-linejoin:miter;stroke-miterlimit:4;stroke-opacity:1;stroke-dasharray:none"
       d="m 56,104 0,48"
       id="path3877"
       inkscape:connector-curvature="0" />
    <path
       inkscape:connector-curvature="0"
       id="path3875"
       d="m 104,56 48,0"
       style="fill:#008000;stroke:#008000;stroke-width:16;stroke-linecap:butt;stroke-linejoin:miter;stroke-miterlimit:4;stroke-opacity:1;stroke-dasharray:none"
       sodipodi:nodetypes="cc" />
    <path
       style="fill:#008000;stroke:#008000;stroke-width:16;stroke-linecap:butt;stroke-linejoin:miter;stroke-miterlimit:4;stroke-opacity:1;stroke-dasharray:none"
       d="m 96,96 64,64"
       id="path3873"
       inkscape:connector-curvature="0" />
    <path
       style="fill:#000000;fill-opacity:1;stroke:none"
       d="m 32,16 c -8.864,0 -16,7.136 -16,16 l 0,64 c 0,8.864 7.136,16 16,16 l 64,0 c 8.864,0 16,-7.136 16,-16 l 0,-64 c 0,-8.864 -7.136,-16 -16,-16 l -64,0 z m 16,16 32,0 c 8.864,0 16,7.136 16,16 l 0,32 c 0,8.864 -7.136,16 -16,16 L 48,96 C 39.136,96 32,88.864 32,80 l 0,-32 c 0,-8.864 7.136,-16 16,-16 z"
       id="rect3851"
       inkscape:connector-curvature="0" />
    <path
       id="path3867"
       d="m 160,144 c -8.864,0 -16,7.136 -16,16 l 0,64 c 0,8.864 7.136,16 16,16 l 64,0 c 8.864,0 16,-7.136 16,-16 l 0,-64 c 0,-8.864 -7.136,-16 -16,-16 l -64,0 z m 16,16 32,0 c 8.864,0 16,7.136 16,16 l 0,32 c 0,8.864 -7.136,16 -16,16 l -32,0 c -8.864,0 -16,-7.136 -16,-16 l 0,-32 c 0,-8.864 7.136,-16 16,-16 z"
       style="fill:#000000;fill-opacity:1;stroke:none"
       inkscape:connector-curvature="0" />
    <path
       inkscape:connector-curvature="0"
       style="fill:#000000;fill-opacity:1;stroke:none"
       d="m 160,16 c -8.864,0 -16,7.136 -16,16 l 0,64 c 0,8.864 7.136,16 16,16 l 64,0 c 8.864,0 16,-7.136 16,-16 l 0,-64 c 0,-8.864 -7.136,-16 -16,-16 l -64,0 z m 16,16 32,0 c 8.864,0 16,7.136 16,16 l 0,32 c 0,8.864 -7.136,16 -16,16 l -32,0 c -8.864,0 -16,-7.136 -16,-16 l 0,-32 c 0,-8.864 7.136,-16 16,-16 z"
       id="path3869" />
    <path
       inkscape:connector-curvature="0"
       style="fill:#000000;fill-opacity:1;stroke:none"
       d="m 32,144 c -8.864,0 -16,7.136 -16,16 l 0,64 c 0,8.864 7.136,16 16,16 l 64,0 c 8.864,0 16,-7.136 16,-16 l 0,-64 c 0,-8.864 -7.136,-16 -16,-16 l -64,0 z m 16,16 32,0 c 8.864,0 16,7.136 16,16 l 0,32 c 0,8.864 -7.136,16 -16,16 l -32,0 c -8.864,0 -16,-7.136 -16,-16 l 0,-32 c 0,-8.864 7.136,-16 16,-16 z"
       id="path3871" />
  </g>
</svg>
